# xmcd
#
# Track frame offsets: 
#        150
#        14574
#        26495
#        43269
#        59970
#
# Disc length: 1045 seconds
#
# Revision: 0
# Processed by: cddbd v1.5.2PL0 Copyright (c) Steve Scherf et al.
# Submitted via: ExactAudioCopy v0.99pb5
#
DISCID=46041305
DTITLE=Kivenveistäjä - Ratakivi-Äänite
DYEAR=2007
DGENRE=Hip-Hop
TTITLE0=Kehissä
TTITLE1=Huonossa hapessa Pt. 4 (feat. Haaskavaris)
TTITLE2=Läskihelvetti
TTITLE3=Kiesillä raidaa
TTITLE4=Ratakivi (feat. Haaskavaris, Kari Mutka and Kaarlo Kama)
EXTD=
EXTT0=
EXTT1=
EXTT2=
EXTT3=
EXTT4=
PLAYORDER=
